<svg width="24" height="24" viewBox="0 0 24 24" fill="none" xmlns="http://www.w3.org/2000/svg">
<g id="fi_9219671" clip-path="url(#clip0_9013_8068)">
<g id="Group">
<g id="Group_2">
<path id="Vector" d="M9.49051 23.1309C8.17276 23.1309 7.10063 22.0588 7.10063 20.7411C7.10063 19.4233 8.17276 18.3516 9.49051 18.3516C10.8083 18.3516 11.8804 19.4233 11.8804 20.7411C11.8804 22.0588 10.8083 23.1309 9.49051 23.1309ZM9.49051 19.8516C9.00001 19.8516 8.60063 20.2506 8.60063 20.7411C8.60063 21.2319 8.99963 21.6309 9.49051 21.6309C9.98138 21.6309 10.3804 21.2319 10.3804 20.7411C10.3804 20.2506 9.98138 19.8516 9.49051 19.8516Z" fill="white"/>
<path id="Vector_2" d="M17.7983 23.1309C16.4805 23.1309 15.4088 22.0588 15.4088 20.7411C15.4088 19.4233 16.4805 18.3516 17.7983 18.3516C19.116 18.3516 20.1881 19.4233 20.1881 20.7411C20.1881 22.0588 19.1156 23.1309 17.7983 23.1309ZM17.7983 19.8516C17.3078 19.8516 16.9088 20.2506 16.9088 20.7411C16.9088 21.2319 17.3078 21.6309 17.7983 21.6309C18.2891 21.6309 18.6881 21.2319 18.6881 20.7411C18.6881 20.2506 18.2888 19.8516 17.7983 19.8516Z" fill="white"/>
</g>
<path id="Vector_3" d="M19.548 16.4985H7.76588C6.6195 16.4985 5.64038 15.7181 5.38463 14.6006L2.93926 3.92172C2.90701 3.78072 2.80951 3.65997 2.67826 3.59922L0.64988 2.65909C0.18038 2.44159 -0.023995 1.88434 0.193505 1.41447C0.411005 0.944967 0.96863 0.740592 1.43813 0.958092L3.46651 1.89822C4.12013 2.20084 4.60651 2.80084 4.76701 3.50322L7.21238 14.1828C7.27163 14.4423 7.49925 14.6238 7.76588 14.6238H19.548C19.8135 14.6238 20.0408 14.4435 20.1015 14.1847L22.0028 6.00484C22.0571 5.77234 21.9581 5.60322 21.8948 5.52334C21.831 5.44309 21.6885 5.30884 21.45 5.30884H7.57501C7.05713 5.30884 6.63751 4.88922 6.63751 4.37134C6.63751 3.85347 7.05713 3.43384 7.57501 3.43384H21.45C22.1996 3.43384 22.8964 3.77022 23.3629 4.35709C23.8294 4.94397 23.9989 5.69922 23.8294 6.42934L21.9278 14.6096C21.6686 15.7215 20.6903 16.4985 19.548 16.4985Z" fill="white"/>
</g>
</g>
<defs>
<clipPath id="clip0_9013_8068">
<rect width="24" height="24" fill="white"/>
</clipPath>
</defs>
</svg>
